<?xml version="1.0" encoding="UTF-8" standalone="no"?>
<!-- Created with Inkscape (http://www.inkscape.org/) -->

<svg
   xmlns:dc="http://purl.org/dc/elements/1.1/"
   xmlns:cc="http://creativecommons.org/ns#"
   xmlns:rdf="http://www.w3.org/1999/02/22-rdf-syntax-ns#"
   xmlns:svg="http://www.w3.org/2000/svg"
   xmlns="http://www.w3.org/2000/svg"
   xmlns:xlink="http://www.w3.org/1999/xlink"
   xmlns:sodipodi="http://sodipodi.sourceforge.net/DTD/sodipodi-0.dtd"
   xmlns:inkscape="http://www.inkscape.org/namespaces/inkscape"
   width="100"
   height="100"
   id="svg2"
   version="1.1"
   inkscape:version="0.48.4 r9939"
   inkscape:export-filename="D:\Archive\Projects\Github\hmmmmmmmmmmmmmmm\Assets\Textures\Sprites\avatar_talent_6.png"
   inkscape:export-xdpi="90"
   inkscape:export-ydpi="90"
   sodipodi:docname="avatar_talent_6.svg">
  <defs
     id="defs4">
    <linearGradient
       id="linearGradient5348">
      <stop
         style="stop-color:#a71818;stop-opacity:1;"
         offset="0"
         id="stop5350" />
      <stop
         style="stop-color:#a71818;stop-opacity:0.05357143;"
         offset="1"
         id="stop5352" />
    </linearGradient>
    <linearGradient
       id="linearGradient6867">
      <stop
         style="stop-color:#008000;stop-opacity:1;"
         offset="0"
         id="stop6869" />
      <stop
         style="stop-color:#00ff04;stop-opacity:1;"
         offset="1"
         id="stop6871" />
    </linearGradient>
    <linearGradient
       id="linearGradient6773">
      <stop
         style="stop-color:#1e8ef2;stop-opacity:1;"
         offset="0"
         id="stop6775" />
      <stop
         style="stop-color:#ffad00;stop-opacity:0;"
         offset="1"
         id="stop6777" />
    </linearGradient>
    <linearGradient
       id="linearGradient6650">
      <stop
         style="stop-color:#ffaf00;stop-opacity:1;"
         offset="0"
         id="stop6652" />
      <stop
         style="stop-color:#ff0000;stop-opacity:1;"
         offset="1"
         id="stop6654" />
    </linearGradient>
    <linearGradient
       id="linearGradient6642">
      <stop
         style="stop-color:#ffd500;stop-opacity:1;"
         offset="0"
         id="stop6644" />
      <stop
         style="stop-color:#ffa700;stop-opacity:1;"
         offset="1"
         id="stop6646" />
    </linearGradient>
    <linearGradient
       id="linearGradient6634">
      <stop
         style="stop-color:#ffe100;stop-opacity:1;"
         offset="0"
         id="stop6636" />
      <stop
         style="stop-color:#ff4c00;stop-opacity:1;"
         offset="1"
         id="stop6638" />
    </linearGradient>
    <linearGradient
       id="linearGradient3766">
      <stop
         style="stop-color:#078249;stop-opacity:1;"
         offset="0"
         id="stop3768" />
      <stop
         id="stop3774"
         offset="1"
         style="stop-color:#20ab59;stop-opacity:1;" />
      <stop
         style="stop-color:#e6f600;stop-opacity:0;"
         offset="1"
         id="stop3770" />
    </linearGradient>
    <linearGradient
       inkscape:collect="always"
       xlink:href="#linearGradient6634"
       id="linearGradient6640"
       x1="52.459602"
       y1="1005.1401"
       x2="86.348351"
       y2="1005.1401"
       gradientUnits="userSpaceOnUse" />
    <linearGradient
       inkscape:collect="always"
       xlink:href="#linearGradient6642"
       id="linearGradient6648"
       x1="0"
       y1="62.399113"
       x2="90"
       y2="62.399113"
       gradientUnits="userSpaceOnUse"
       gradientTransform="translate(7,942.36218)" />
    <linearGradient
       inkscape:collect="always"
       xlink:href="#linearGradient6650"
       id="linearGradient6656"
       x1="50.934219"
       y1="62.272842"
       x2="90"
       y2="62.399113"
       gradientUnits="userSpaceOnUse"
       gradientTransform="translate(5,942.36218)" />
    <linearGradient
       inkscape:collect="always"
       xlink:href="#linearGradient6650"
       id="linearGradient6670"
       gradientUnits="userSpaceOnUse"
       x1="50.934219"
       y1="62.272842"
       x2="90"
       y2="62.399113"
       gradientTransform="translate(7,942.36218)" />
    <linearGradient
       inkscape:collect="always"
       xlink:href="#linearGradient6650"
       id="linearGradient6678"
       x1="-1"
       y1="62.399113"
       x2="91"
       y2="62.399113"
       gradientUnits="userSpaceOnUse"
       gradientTransform="translate(7,942.36218)" />
    <linearGradient
       inkscape:collect="always"
       xlink:href="#linearGradient6650"
       id="linearGradient6686"
       x1="21.167517"
       y1="974.29126"
       x2="44.219273"
       y2="974.29126"
       gradientUnits="userSpaceOnUse"
       gradientTransform="matrix(0.68229727,0,0,0.68229727,12.280816,312.31397)" />
    <linearGradient
       inkscape:collect="always"
       xlink:href="#linearGradient6634"
       id="linearGradient6694"
       x1="21.167517"
       y1="974.29126"
       x2="44.219273"
       y2="974.29126"
       gradientUnits="userSpaceOnUse"
       gradientTransform="matrix(0.68229727,0,0,0.68229727,12.280816,312.31397)" />
    <linearGradient
       inkscape:collect="always"
       xlink:href="#linearGradient6634"
       id="linearGradient6702"
       x1="11.81853"
       y1="1031.6515"
       x2="36.881664"
       y2="1031.6515"
       gradientUnits="userSpaceOnUse"
       gradientTransform="translate(6.1871843,3.5355339)" />
    <linearGradient
       inkscape:collect="always"
       xlink:href="#linearGradient6650"
       id="linearGradient6710"
       x1="11.31853"
       y1="1031.6515"
       x2="37.381664"
       y2="1031.6515"
       gradientUnits="userSpaceOnUse"
       gradientTransform="translate(6.1871843,3.5355339)" />
    <linearGradient
       inkscape:collect="always"
       xlink:href="#linearGradient6634"
       id="linearGradient6714"
       gradientUnits="userSpaceOnUse"
       x1="21.167517"
       y1="974.29126"
       x2="44.219273"
       y2="974.29126"
       gradientTransform="translate(-17.172594,13.258252)" />
    <linearGradient
       inkscape:collect="always"
       xlink:href="#linearGradient6650"
       id="linearGradient6716"
       gradientUnits="userSpaceOnUse"
       x1="21.167517"
       y1="974.29126"
       x2="44.219273"
       y2="974.29126"
       gradientTransform="translate(-17.172594,13.258252)" />
    <linearGradient
       inkscape:collect="always"
       xlink:href="#linearGradient6634"
       id="linearGradient6720"
       gradientUnits="userSpaceOnUse"
       gradientTransform="matrix(0.93974603,0,0,0.93974603,-12.361632,109.80925)"
       x1="21.167517"
       y1="974.29126"
       x2="44.219273"
       y2="974.29126" />
    <linearGradient
       inkscape:collect="always"
       xlink:href="#linearGradient6650"
       id="linearGradient6722"
       gradientUnits="userSpaceOnUse"
       gradientTransform="matrix(0.93974603,0,0,0.93974603,-12.361632,109.80925)"
       x1="21.167517"
       y1="974.29126"
       x2="44.219273"
       y2="974.29126" />
    <linearGradient
       inkscape:collect="always"
       xlink:href="#linearGradient6634"
       id="linearGradient6726"
       gradientUnits="userSpaceOnUse"
       gradientTransform="matrix(0.50986432,0,0,0.50986432,-5.4086785,520.90832)"
       x1="21.167517"
       y1="974.29126"
       x2="44.219273"
       y2="974.29126" />
    <linearGradient
       inkscape:collect="always"
       xlink:href="#linearGradient6650"
       id="linearGradient6728"
       gradientUnits="userSpaceOnUse"
       gradientTransform="matrix(0.50986432,0,0,0.50986432,-5.4086785,520.90832)"
       x1="21.167517"
       y1="974.29126"
       x2="44.219273"
       y2="974.29126" />
    <linearGradient
       inkscape:collect="always"
       xlink:href="#linearGradient6634"
       id="linearGradient6732"
       gradientUnits="userSpaceOnUse"
       gradientTransform="matrix(0.8767635,0,0,1.007072,22.929766,-13.810737)"
       x1="21.167517"
       y1="974.29126"
       x2="44.219273"
       y2="974.29126" />
    <linearGradient
       inkscape:collect="always"
       xlink:href="#linearGradient6650"
       id="linearGradient6734"
       gradientUnits="userSpaceOnUse"
       gradientTransform="matrix(0.8767635,0,0,1.007072,22.929766,-13.810737)"
       x1="21.167517"
       y1="974.29126"
       x2="44.219273"
       y2="974.29126" />
    <linearGradient
       inkscape:collect="always"
       xlink:href="#linearGradient6634"
       id="linearGradient6756"
       gradientUnits="userSpaceOnUse"
       gradientTransform="matrix(0.8767635,0,0,-1.007072,23.182304,2025.2456)"
       x1="21.167517"
       y1="974.29126"
       x2="44.219273"
       y2="974.29126" />
    <linearGradient
       inkscape:collect="always"
       xlink:href="#linearGradient6650"
       id="linearGradient6758"
       gradientUnits="userSpaceOnUse"
       gradientTransform="matrix(0.8767635,0,0,-1.007072,23.182304,2025.2456)"
       x1="21.167517"
       y1="974.29126"
       x2="44.219273"
       y2="974.29126" />
    <radialGradient
       inkscape:collect="always"
       xlink:href="#linearGradient5348"
       id="radialGradient5367"
       gradientUnits="userSpaceOnUse"
       gradientTransform="matrix(1.8291293,0.00776458,-0.0078717,1.8543641,-35.18592,-857.43921)"
       cx="51.960812"
       cy="1003.1271"
       fx="51.960812"
       fy="1003.1271"
       r="39.576084" />
  </defs>
  <sodipodi:namedview
     id="base"
     pagecolor="#000000"
     bordercolor="#666666"
     borderopacity="1.0"
     inkscape:pageopacity="1"
     inkscape:pageshadow="2"
     inkscape:zoom="5.12"
     inkscape:cx="25.446815"
     inkscape:cy="47.014532"
     inkscape:document-units="px"
     inkscape:current-layer="layer2"
     showgrid="true"
     inkscape:snap-bbox="true"
     inkscape:snap-bbox-edge-midpoints="true"
     inkscape:window-width="1920"
     inkscape:window-height="1027"
     inkscape:window-x="-8"
     inkscape:window-y="-8"
     inkscape:window-maximized="1"
     inkscape:snap-nodes="false"
     inkscape:snap-global="false">
    <inkscape:grid
       type="xygrid"
       id="grid2985"
       empspacing="5"
       visible="true"
       enabled="true"
       snapvisiblegridlinesonly="true"
       dotted="false" />
  </sodipodi:namedview>
  <metadata
     id="metadata7">
    <rdf:RDF>
      <cc:Work
         rdf:about="">
        <dc:format>image/svg+xml</dc:format>
        <dc:type
           rdf:resource="http://purl.org/dc/dcmitype/StillImage" />
        <dc:title></dc:title>
      </cc:Work>
    </rdf:RDF>
  </metadata>
  <g
     inkscape:label="Layer 1"
     inkscape:groupmode="layer"
     id="layer1"
     transform="translate(0,-952.36218)">
    <g
       id="g5358"
       transform="translate(-1.9608131,-0.76494076)">
      <path
         sodipodi:nodetypes="sssss"
         inkscape:connector-curvature="0"
         id="path3941"
         d="m 72.998017,975.56453 c 1.348499,1.49815 -5.165712,37.89327 -12.03423,44.10187 -6.184244,5.5898 -35.183628,4.5083 -36.532127,3.0101 -1.348497,-1.4982 6.139273,-30.11752 12.14311,-35.25689 5.948257,-5.09184 35.074749,-13.35326 36.423247,-11.85508 z"
         style="fill:#550000;fill-opacity:1;fill-rule:nonzero;stroke:none" />
      <path
         sodipodi:nodetypes="zszzz"
         inkscape:connector-curvature="0"
         id="rect5710"
         d="m 25.043123,970.37931 c 5.584956,-11.31373 52.041501,-10.54997 55.377489,2.12176 9.543043,36.24893 9.616269,64.85673 5.940881,68.95663 -3.675385,4.0996 -61.249945,4.3118 -67.047078,0.4243 -5.797127,-3.8877 0.143754,-60.189 5.728708,-71.50269 z"
         style="fill:#b3b3b3;fill-opacity:1;stroke:#000000;stroke-width:3.36066961;stroke-miterlimit:4;stroke-opacity:1;stroke-dasharray:none" />
      <path
         sodipodi:nodetypes="zzzzz"
         inkscape:connector-curvature="0"
         id="rect6225"
         d="m 29.161154,982.889 c 6.710372,-3.50604 42.27612,-4.31364 45.742352,0 3.466235,4.31332 3.790649,14.66083 0,17.3595 -3.790645,2.6983 -41.627291,5.5244 -45.742352,0 -4.115062,-5.5247 -6.710375,-13.85349 0,-17.3595 z"
         style="fill:#000000;fill-opacity:1;stroke:none" />
      <path
         sodipodi:nodetypes="zzzzz"
         inkscape:connector-curvature="0"
         id="rect6227"
         d="m 41.575731,996.18949 c 0.946006,-2.00767 18.791643,-2.98292 20.108068,0 1.316427,2.98294 5.541044,48.16371 0,48.16371 -5.541043,0 -12.922722,0 -20.108068,0 -7.185348,0 -0.946007,-46.15587 0,-48.16371 z"
         style="fill:#000000;fill-opacity:1;stroke:none" />
      <path
         sodipodi:nodetypes="ccccccccccccccccccccccc"
         inkscape:connector-curvature="0"
         id="path3825"
         d="m 29.102892,971.30569 -5.815395,13.15986 -0.942903,9.06344 0.457043,8.68281 -2.700539,10.802 0.900181,9.002 1.500298,9.6017 -0.300059,5.4012 3.600718,1.8005 5.701136,1.5002 6.301255,0.3001 -2.776042,-3.3294 c 0,0 1.275742,-7.1726 0.375563,-8.9731 -0.90018,-1.8004 -1.529115,-9.878 -1.529115,-9.878 l -1.733792,-7.4776 -7.062322,-10.9831 -0.985623,-14.45458 5.986286,-6.91629 14.163401,-0.01 4.238589,-5.74883 1.043255,-6.8486 -15.620978,1.58576 z"
         style="fill:#ffffff;fill-opacity:0.21568627;stroke:none" />
      <path
         style="fill:#800000;fill-opacity:1;stroke:#800000;stroke-width:1;stroke-linejoin:round;stroke-miterlimit:4;stroke-opacity:1;stroke-dasharray:none"
         d="m 74.773518,972.13433 5.815395,13.15986 0.942903,9.06344 -0.457043,8.68277 2.700539,10.802 -0.900181,9.002 -1.500298,9.6017 0.300059,5.4012 -3.600718,1.8005 -5.701136,1.5002 -6.301255,0.3001 2.776042,-3.3294 c 0,0 -1.275742,-7.1726 -0.375563,-8.9731 0.90018,-1.8004 1.529115,-9.878 1.529115,-9.878 l 1.733792,-7.4776 7.062322,-10.9831 0.985623,-14.45454 -5.986286,-6.91629 -13.33476,-0.70053 -5.06723,-5.0583 -1.043255,-6.8486 15.620978,1.58576 z"
         id="path5344"
         inkscape:connector-curvature="0"
         sodipodi:nodetypes="ccccccccccccccccccccccc" />
      <path
         style="fill:none;stroke:url(#radialGradient5367);stroke-width:10;stroke-miterlimit:4;stroke-opacity:1;stroke-dasharray:none"
         d="m 22.707442,968.14624 c 5.89126,-11.93423 54.895686,-11.12858 58.414634,2.23812 10.066426,38.23694 10.143668,68.41374 6.266705,72.73854 -3.876959,4.3244 -64.609161,4.5483 -70.724234,0.4475 -6.115067,-4.1009 0.151638,-63.48998 6.042895,-75.42416 z"
         id="path5346"
         inkscape:connector-curvature="0"
         sodipodi:nodetypes="zszzz" />
    </g>
  </g>
  <g
     inkscape:groupmode="layer"
     id="layer2"
     inkscape:label="Layer">
    <path
       style="fill:#ba0006;fill-opacity:1;fill-rule:nonzero;stroke:none"
       d="m 73.206363,32.00065 c 0.484851,0.605485 -2.810676,9.191414 -5.28024,11.700594 -2.223535,2.259182 -9.660963,5.768411 -10.145813,5.162938 -0.484851,-0.605473 3.101174,-10.218479 5.259844,-12.295558 2.138686,-2.057844 9.681359,-5.173461 10.166209,-4.567974 z"
       id="path3933"
       inkscape:connector-curvature="0"
       sodipodi:nodetypes="sssss" />
    <path
       sodipodi:nodetypes="sssss"
       inkscape:connector-curvature="0"
       id="path4820"
       d="m 70.998291,34.329988 c 0.368038,0.45961 -2.133515,6.976978 -4.008101,8.881634 -1.687831,1.714891 -7.3334,4.37866 -7.701438,3.91906 -0.368038,-0.459599 2.354025,-7.756597 3.992618,-9.333257 1.623425,-1.562058 7.348883,-3.927047 7.716921,-3.467437 z"
       style="fill:#800000;fill-opacity:1;fill-rule:nonzero;stroke:none" />
    <path
       sodipodi:nodetypes="sssss"
       inkscape:connector-curvature="0"
       id="path4824"
       d="m 25.733102,31.943445 c -0.484851,0.605485 2.810676,9.191414 5.28024,11.700594 2.223535,2.259182 9.660963,5.768411 10.145813,5.162938 0.484851,-0.605473 -3.101174,-10.218479 -5.259844,-12.295558 -2.138686,-2.057844 -9.681359,-5.173461 -10.166209,-4.567974 z"
       style="fill:#ba0006;fill-opacity:1;fill-rule:nonzero;stroke:none" />
    <path
       style="fill:#800000;fill-opacity:1;fill-rule:nonzero;stroke:none"
       d="m 27.941174,34.272783 c -0.368038,0.45961 2.133515,6.976978 4.008101,8.881634 1.687831,1.714891 7.3334,4.37866 7.701438,3.91906 0.368038,-0.459599 -2.354025,-7.756597 -3.992618,-9.333257 -1.623425,-1.562058 -7.348883,-3.927047 -7.716921,-3.467437 z"
       id="path4826"
       inkscape:connector-curvature="0"
       sodipodi:nodetypes="sssss" />
  </g>
  <g
     inkscape:groupmode="layer"
     id="layer3"
     inkscape:label="Layer#1" />
</svg>
