<?xml version="1.0" encoding="UTF-8" standalone="no"?>
<!-- Created with Inkscape (http://www.inkscape.org/) -->

<svg
   xmlns:dc="http://purl.org/dc/elements/1.1/"
   xmlns:cc="http://creativecommons.org/ns#"
   xmlns:rdf="http://www.w3.org/1999/02/22-rdf-syntax-ns#"
   xmlns:svg="http://www.w3.org/2000/svg"
   xmlns="http://www.w3.org/2000/svg"
   xmlns:xlink="http://www.w3.org/1999/xlink"
   xmlns:sodipodi="http://sodipodi.sourceforge.net/DTD/sodipodi-0.dtd"
   xmlns:inkscape="http://www.inkscape.org/namespaces/inkscape"
   width="100"
   height="100"
   id="svg2"
   version="1.1"
   inkscape:version="0.48.4 r9939"
   inkscape:export-filename="D:\Archive\Projects\Github\hmmmmmmmmmmmmmmm\Assets\Textures\Sprites\avatar_spell_5.png"
   inkscape:export-xdpi="90"
   inkscape:export-ydpi="90"
   sodipodi:docname="avatar_item_5.svg">
  <defs
     id="defs4">
    <linearGradient
       id="linearGradient6650">
      <stop
         style="stop-color:#ffaf00;stop-opacity:1;"
         offset="0"
         id="stop6652" />
      <stop
         style="stop-color:#ff0000;stop-opacity:1;"
         offset="1"
         id="stop6654" />
    </linearGradient>
    <linearGradient
       id="linearGradient6642">
      <stop
         style="stop-color:#ffd500;stop-opacity:1;"
         offset="0"
         id="stop6644" />
      <stop
         style="stop-color:#ffa700;stop-opacity:1;"
         offset="1"
         id="stop6646" />
    </linearGradient>
    <linearGradient
       id="linearGradient6634">
      <stop
         style="stop-color:#ffe100;stop-opacity:1;"
         offset="0"
         id="stop6636" />
      <stop
         style="stop-color:#ff4c00;stop-opacity:1;"
         offset="1"
         id="stop6638" />
    </linearGradient>
    <linearGradient
       id="linearGradient3766">
      <stop
         style="stop-color:#078249;stop-opacity:1;"
         offset="0"
         id="stop3768" />
      <stop
         id="stop3774"
         offset="1"
         style="stop-color:#20ab59;stop-opacity:1;" />
      <stop
         style="stop-color:#e6f600;stop-opacity:0;"
         offset="1"
         id="stop3770" />
    </linearGradient>
    <linearGradient
       inkscape:collect="always"
       xlink:href="#linearGradient6634"
       id="linearGradient6640"
       x1="52.459602"
       y1="1005.1401"
       x2="86.348351"
       y2="1005.1401"
       gradientUnits="userSpaceOnUse" />
    <linearGradient
       inkscape:collect="always"
       xlink:href="#linearGradient6642"
       id="linearGradient6648"
       x1="0"
       y1="62.399113"
       x2="90"
       y2="62.399113"
       gradientUnits="userSpaceOnUse"
       gradientTransform="translate(7,942.36218)" />
    <linearGradient
       inkscape:collect="always"
       xlink:href="#linearGradient6650"
       id="linearGradient6656"
       x1="50.934219"
       y1="62.272842"
       x2="90"
       y2="62.399113"
       gradientUnits="userSpaceOnUse"
       gradientTransform="translate(5,942.36218)" />
    <linearGradient
       inkscape:collect="always"
       xlink:href="#linearGradient6650"
       id="linearGradient6670"
       gradientUnits="userSpaceOnUse"
       x1="50.934219"
       y1="62.272842"
       x2="90"
       y2="62.399113"
       gradientTransform="translate(7,942.36218)" />
    <linearGradient
       inkscape:collect="always"
       xlink:href="#linearGradient6650"
       id="linearGradient6678"
       x1="-1"
       y1="62.399113"
       x2="91"
       y2="62.399113"
       gradientUnits="userSpaceOnUse"
       gradientTransform="translate(7,942.36218)" />
    <linearGradient
       inkscape:collect="always"
       xlink:href="#linearGradient6650"
       id="linearGradient6686"
       x1="21.167517"
       y1="974.29126"
       x2="44.219273"
       y2="974.29126"
       gradientUnits="userSpaceOnUse"
       gradientTransform="matrix(0.68229727,0,0,0.68229727,12.280816,312.31397)" />
    <linearGradient
       inkscape:collect="always"
       xlink:href="#linearGradient6634"
       id="linearGradient6694"
       x1="21.167517"
       y1="974.29126"
       x2="44.219273"
       y2="974.29126"
       gradientUnits="userSpaceOnUse"
       gradientTransform="matrix(0.68229727,0,0,0.68229727,12.280816,312.31397)" />
    <linearGradient
       inkscape:collect="always"
       xlink:href="#linearGradient6634"
       id="linearGradient6702"
       x1="11.81853"
       y1="1031.6515"
       x2="36.881664"
       y2="1031.6515"
       gradientUnits="userSpaceOnUse"
       gradientTransform="translate(6.1871843,3.5355339)" />
    <linearGradient
       inkscape:collect="always"
       xlink:href="#linearGradient6650"
       id="linearGradient6710"
       x1="11.31853"
       y1="1031.6515"
       x2="37.381664"
       y2="1031.6515"
       gradientUnits="userSpaceOnUse"
       gradientTransform="translate(6.1871843,3.5355339)" />
    <linearGradient
       inkscape:collect="always"
       xlink:href="#linearGradient6634"
       id="linearGradient6714"
       gradientUnits="userSpaceOnUse"
       x1="21.167517"
       y1="974.29126"
       x2="44.219273"
       y2="974.29126"
       gradientTransform="translate(-17.172594,13.258252)" />
    <linearGradient
       inkscape:collect="always"
       xlink:href="#linearGradient6650"
       id="linearGradient6716"
       gradientUnits="userSpaceOnUse"
       x1="21.167517"
       y1="974.29126"
       x2="44.219273"
       y2="974.29126"
       gradientTransform="translate(-17.172594,13.258252)" />
    <linearGradient
       inkscape:collect="always"
       xlink:href="#linearGradient6634"
       id="linearGradient6720"
       gradientUnits="userSpaceOnUse"
       gradientTransform="matrix(0.93974603,0,0,0.93974603,-12.361632,109.80925)"
       x1="21.167517"
       y1="974.29126"
       x2="44.219273"
       y2="974.29126" />
    <linearGradient
       inkscape:collect="always"
       xlink:href="#linearGradient6650"
       id="linearGradient6722"
       gradientUnits="userSpaceOnUse"
       gradientTransform="matrix(0.93974603,0,0,0.93974603,-12.361632,109.80925)"
       x1="21.167517"
       y1="974.29126"
       x2="44.219273"
       y2="974.29126" />
    <linearGradient
       inkscape:collect="always"
       xlink:href="#linearGradient6634"
       id="linearGradient6726"
       gradientUnits="userSpaceOnUse"
       gradientTransform="matrix(0.50986432,0,0,0.50986432,-5.4086785,520.90832)"
       x1="21.167517"
       y1="974.29126"
       x2="44.219273"
       y2="974.29126" />
    <linearGradient
       inkscape:collect="always"
       xlink:href="#linearGradient6650"
       id="linearGradient6728"
       gradientUnits="userSpaceOnUse"
       gradientTransform="matrix(0.50986432,0,0,0.50986432,-5.4086785,520.90832)"
       x1="21.167517"
       y1="974.29126"
       x2="44.219273"
       y2="974.29126" />
    <linearGradient
       inkscape:collect="always"
       xlink:href="#linearGradient6634"
       id="linearGradient6732"
       gradientUnits="userSpaceOnUse"
       gradientTransform="matrix(0.8767635,0,0,1.007072,22.929766,-13.810737)"
       x1="21.167517"
       y1="974.29126"
       x2="44.219273"
       y2="974.29126" />
    <linearGradient
       inkscape:collect="always"
       xlink:href="#linearGradient6650"
       id="linearGradient6734"
       gradientUnits="userSpaceOnUse"
       gradientTransform="matrix(0.8767635,0,0,1.007072,22.929766,-13.810737)"
       x1="21.167517"
       y1="974.29126"
       x2="44.219273"
       y2="974.29126" />
    <linearGradient
       inkscape:collect="always"
       xlink:href="#linearGradient6634"
       id="linearGradient6756"
       gradientUnits="userSpaceOnUse"
       gradientTransform="matrix(0.8767635,0,0,-1.007072,23.182304,2025.2456)"
       x1="21.167517"
       y1="974.29126"
       x2="44.219273"
       y2="974.29126" />
    <linearGradient
       inkscape:collect="always"
       xlink:href="#linearGradient6650"
       id="linearGradient6758"
       gradientUnits="userSpaceOnUse"
       gradientTransform="matrix(0.8767635,0,0,-1.007072,23.182304,2025.2456)"
       x1="21.167517"
       y1="974.29126"
       x2="44.219273"
       y2="974.29126" />
  </defs>
  <sodipodi:namedview
     id="base"
     pagecolor="#373737"
     bordercolor="#666666"
     borderopacity="1.0"
     inkscape:pageopacity="1"
     inkscape:pageshadow="2"
     inkscape:zoom="3.959798"
     inkscape:cx="38.067961"
     inkscape:cy="58.009245"
     inkscape:document-units="px"
     inkscape:current-layer="layer1"
     showgrid="true"
     inkscape:snap-bbox="false"
     inkscape:snap-bbox-edge-midpoints="true"
     inkscape:window-width="1920"
     inkscape:window-height="1027"
     inkscape:window-x="-8"
     inkscape:window-y="-8"
     inkscape:window-maximized="1"
     inkscape:snap-nodes="false"
     inkscape:snap-global="false">
    <inkscape:grid
       type="xygrid"
       id="grid2985"
       empspacing="5"
       visible="true"
       enabled="true"
       snapvisiblegridlinesonly="true"
       dotted="false" />
  </sodipodi:namedview>
  <metadata
     id="metadata7">
    <rdf:RDF>
      <cc:Work
         rdf:about="">
        <dc:format>image/svg+xml</dc:format>
        <dc:type
           rdf:resource="http://purl.org/dc/dcmitype/StillImage" />
        <dc:title></dc:title>
      </cc:Work>
    </rdf:RDF>
  </metadata>
  <g
     inkscape:label="Layer 1"
     inkscape:groupmode="layer"
     id="layer1"
     transform="translate(0,-952.36218)">
    <path
       style="fill:url(#linearGradient6648);fill-opacity:1;stroke:url(#linearGradient6678);stroke-width:2;stroke-miterlimit:4;stroke-opacity:1;stroke-dasharray:none"
       d="m 97,1002.3622 c 0,19.3299 -15.670034,35 -35,35 -19.329966,0 -55,-35 -55,-35 0,0 11.821697,-3.95179 23.155452,-12.70179 11.333754,-8.75 25.083754,-17.5 34.748737,-17.5 C 84.234155,972.16041 97,983.03221 97,1002.3622 z"
       id="path6105"
       inkscape:connector-curvature="0"
       sodipodi:nodetypes="sscsss" />
    <path
       sodipodi:nodetypes="sscsss"
       inkscape:connector-curvature="0"
       id="path6108"
       d="m 43.068848,1036.2889 c -3.358502,2.2852 -8.080678,3.7249 -10.883883,3.1567 -5.841142,-1.184 -14.179251,-5.1023 -14.179251,-5.1023 0,0 5.242817,0.7168 8.737309,-1.9811 3.494491,-2.6978 8.686317,-1.2236 11.578363,-0.5051 4.065896,1.0101 4.747462,4.4318 4.747462,4.4318 z"
       style="fill:url(#linearGradient6702);fill-opacity:1;stroke:url(#linearGradient6710);stroke-opacity:1" />
    <path
       style="fill:url(#linearGradient6694);fill-opacity:1;stroke:url(#linearGradient6686);stroke-width:0.68229729;stroke-opacity:1"
       d="m 42.011186,978.36224 c -2.291497,1.55919 -5.94419,1.85227 -7.856809,1.46459 -3.985396,-0.80784 -7.089873,-1.15515 -7.089873,-1.15515 0,0 2.284864,-1.57861 4.669146,-3.41938 2.384282,-1.8407 8.706831,-1.14272 9.881406,0.51691 0.792629,1.11995 0.39613,2.59303 0.39613,2.59303 z"
       id="path6110"
       inkscape:connector-curvature="0"
       sodipodi:nodetypes="sscsss" />
    <path
       sodipodi:nodetypes="sszsss"
       inkscape:connector-curvature="0"
       id="path6620"
       d="m 94.368655,1002.3622 c 0,19.3299 -10.87181,33.4848 -30.201776,33.4848 -2.914987,0 4.876601,-0.4709 -4.618641,-14.4182 -9.495242,-13.9473 -10.022853,-23.14466 1.310902,-31.89466 11.333754,-8.75 -7.746203,-16.36358 1.91878,-16.36358 19.329966,0 31.590735,9.86165 31.590735,29.19164 z"
       style="fill:url(#linearGradient6656);fill-opacity:1;stroke:none" />
    <path
       style="fill:url(#linearGradient6670);fill-opacity:1;stroke:none"
       d="m 96.368655,1002.3622 c 0,19.3299 -10.87181,33.4848 -30.201776,33.4848 -2.914987,0 4.876601,-0.4709 -4.618641,-14.4182 -9.495242,-13.9473 -10.022853,-23.14466 1.310902,-31.89466 11.333754,-8.75 -7.746203,-16.36358 1.91878,-16.36358 19.329966,0 31.590735,9.86165 31.590735,29.19164 z"
       id="path6668"
       inkscape:connector-curvature="0"
       sodipodi:nodetypes="sszsss" />
    <path
       sodipodi:nodetypes="sscsss"
       inkscape:connector-curvature="0"
       id="path6712"
       d="m 26.40133,989.44311 c -3.358502,2.2852 -8.712024,2.71475 -11.515229,2.14655 -5.8411416,-1.184 -10.3911782,-1.69303 -10.3911782,-1.69303 0,0 3.348782,-2.31366 6.8432722,-5.01156 3.494491,-2.6978 12.761052,-1.67482 14.482552,0.75759 1.161707,1.64145 0.580583,3.80045 0.580583,3.80045 z"
       style="fill:url(#linearGradient6714);fill-opacity:1;stroke:url(#linearGradient6716);stroke-opacity:1" />
    <path
       style="fill:url(#linearGradient6720);fill-opacity:1;stroke:url(#linearGradient6722);stroke-width:0.93974602;stroke-opacity:1"
       d="m 28.58679,1027.1751 c -3.156139,2.1475 -8.18709,2.5512 -10.821391,2.0172 -5.48919,-1.1127 -9.7650692,-1.591 -9.7650692,-1.591 0,0 3.1470042,-2.1743 6.4309382,-4.7096 3.283934,-2.5353 11.992148,-1.5739 13.609921,0.7119 1.09171,1.5426 0.545601,3.5715 0.545601,3.5715 z"
       id="path6718"
       inkscape:connector-curvature="0"
       sodipodi:nodetypes="sscsss" />
    <path
       sodipodi:nodetypes="sscsss"
       inkscape:connector-curvature="0"
       id="path6724"
       d="m 16.808111,1018.6302 c -1.71238,1.1652 -4.441951,1.3842 -5.871205,1.0945 -2.9781897,-0.6037 -5.2980912,-0.8632 -5.2980912,-0.8632 0,0 1.7074244,-1.1797 3.4891407,-2.5553 1.7817165,-1.3755 6.5064055,-0.8539 7.3841365,0.3863 0.592313,0.8369 0.296019,1.9377 0.296019,1.9377 z"
       style="fill:url(#linearGradient6726);fill-opacity:1;stroke:url(#linearGradient6728);stroke-width:0.50986433;stroke-opacity:1" />
    <path
       style="fill:url(#linearGradient6732);fill-opacity:1;stroke:url(#linearGradient6734);stroke-width:0.93966162;stroke-opacity:1"
       d="m 59.258793,969.18846 c -2.944612,2.30136 -3.555497,2.3106 -6.078276,2.25102 -5.121299,-0.12094 -9.199891,0.52714 -9.199891,0.52714 0,0 2.936089,-3.40145 5.999931,-6.11843 3.063842,-2.71688 9.134853,-2.84738 10.644202,-0.39777 1.018542,1.65306 -1.365966,3.73804 -1.365966,3.73804 z"
       id="path6730"
       inkscape:connector-curvature="0"
       sodipodi:nodetypes="sscsss" />
    <path
       style="fill:url(#linearGradient6714);fill-opacity:1;stroke:url(#linearGradient6716);stroke-opacity:1"
       d="m 26.40133,989.44311 c -3.358502,2.2852 -8.712024,2.71475 -11.515229,2.14655 -5.8411416,-1.184 -10.3911782,-1.69303 -10.3911782,-1.69303 0,0 3.348782,-2.31366 6.8432722,-5.01156 3.494491,-2.6978 12.761052,-1.67482 14.482552,0.75759 1.161707,1.64145 0.580583,3.80045 0.580583,3.80045 z"
       id="path6736"
       inkscape:connector-curvature="0"
       sodipodi:nodetypes="sscsss" />
    <path
       sodipodi:nodetypes="sscsss"
       inkscape:connector-curvature="0"
       id="path6754"
       d="m 59.511331,1042.2464 c -2.944612,-2.3013 -3.555497,-2.3106 -6.078276,-2.251 -5.121299,0.1209 -9.199891,-0.5271 -9.199891,-0.5271 0,0 2.936089,3.4014 5.999931,6.1184 3.063842,2.7169 9.134853,2.8474 10.644202,0.3978 1.018542,-1.6531 -1.365966,-3.7381 -1.365966,-3.7381 z"
       style="fill:url(#linearGradient6756);fill-opacity:1;stroke:url(#linearGradient6758);stroke-width:0.93966162;stroke-opacity:1" />
  </g>
</svg>
