<?xml version="1.0" encoding="UTF-8" standalone="no"?>
<!-- Created with Inkscape (http://www.inkscape.org/) -->

<svg
   xmlns:dc="http://purl.org/dc/elements/1.1/"
   xmlns:cc="http://creativecommons.org/ns#"
   xmlns:rdf="http://www.w3.org/1999/02/22-rdf-syntax-ns#"
   xmlns:svg="http://www.w3.org/2000/svg"
   xmlns="http://www.w3.org/2000/svg"
   xmlns:xlink="http://www.w3.org/1999/xlink"
   xmlns:sodipodi="http://sodipodi.sourceforge.net/DTD/sodipodi-0.dtd"
   xmlns:inkscape="http://www.inkscape.org/namespaces/inkscape"
   width="100"
   height="100"
   id="svg2"
   version="1.1"
   inkscape:version="0.48.4 r9939"
   inkscape:export-filename="D:\Archive\Projects\Github\hmmmmmmmmmmmmmmm\Assets\Textures\Sprites\avatar_currencypack_crystal.png"
   inkscape:export-xdpi="90"
   inkscape:export-ydpi="90"
   sodipodi:docname="avatar_currencypack_crystal.svg">
  <defs
     id="defs4">
    <linearGradient
       id="linearGradient3766">
      <stop
         style="stop-color:#0029ff;stop-opacity:1;"
         offset="0"
         id="stop3768" />
      <stop
         id="stop3774"
         offset="1"
         style="stop-color:#30a6ff;stop-opacity:1;" />
      <stop
         style="stop-color:#0000ff;stop-opacity:0;"
         offset="1"
         id="stop3770" />
    </linearGradient>
    <linearGradient
       gradientTransform="matrix(0.4102623,-0.4102623,0.4102623,0.4102623,-3.9900063,445.60794)"
       y2="719.38373"
       x2="-648.67303"
       y1="768.17407"
       x1="-697.46338"
       gradientUnits="userSpaceOnUse"
       id="linearGradient3797"
       xlink:href="#linearGradient3766-1"
       inkscape:collect="always" />
    <linearGradient
       id="linearGradient3766-1">
      <stop
         style="stop-color:#00ffe9;stop-opacity:1;"
         offset="0"
         id="stop3768-7" />
      <stop
         id="stop3774-4"
         offset="1"
         style="stop-color:#abd8fa;stop-opacity:1;" />
      <stop
         style="stop-color:#0000ff;stop-opacity:0;"
         offset="1"
         id="stop3770-0" />
    </linearGradient>
    <linearGradient
       inkscape:collect="always"
       xlink:href="#linearGradient3766-1"
       id="linearGradient3091"
       gradientUnits="userSpaceOnUse"
       gradientTransform="matrix(0.72801828,-0.72801828,0.72801828,0.72801828,-11.993452,-27.655169)"
       x1="-697.46338"
       y1="768.17407"
       x2="-648.67303"
       y2="719.38373" />
    <linearGradient
       inkscape:collect="always"
       xlink:href="#linearGradient3766-1"
       id="linearGradient3103"
       gradientUnits="userSpaceOnUse"
       gradientTransform="matrix(0.72801828,-0.72801828,0.72801828,0.72801828,-1.2541208,-30.157955)"
       x1="-697.46338"
       y1="768.17407"
       x2="-648.67303"
       y2="719.38373" />
    <linearGradient
       inkscape:collect="always"
       xlink:href="#linearGradient3766-1"
       id="linearGradient3115"
       gradientUnits="userSpaceOnUse"
       gradientTransform="matrix(0.72801828,-0.72801828,0.72801828,0.72801828,10.651668,-26.182028)"
       x1="-697.46338"
       y1="768.17407"
       x2="-648.67303"
       y2="719.38373" />
  </defs>
  <sodipodi:namedview
     id="base"
     pagecolor="#373737"
     bordercolor="#666666"
     borderopacity="1.0"
     inkscape:pageopacity="1"
     inkscape:pageshadow="2"
     inkscape:zoom="5.6"
     inkscape:cx="31.744325"
     inkscape:cy="48.239171"
     inkscape:document-units="px"
     inkscape:current-layer="layer1"
     showgrid="true"
     inkscape:snap-bbox="true"
     inkscape:snap-bbox-edge-midpoints="true"
     inkscape:window-width="1920"
     inkscape:window-height="1027"
     inkscape:window-x="-8"
     inkscape:window-y="-8"
     inkscape:window-maximized="1">
    <inkscape:grid
       type="xygrid"
       id="grid2985"
       empspacing="5"
       visible="true"
       enabled="true"
       snapvisiblegridlinesonly="true"
       dotted="false" />
  </sodipodi:namedview>
  <metadata
     id="metadata7">
    <rdf:RDF>
      <cc:Work
         rdf:about="">
        <dc:format>image/svg+xml</dc:format>
        <dc:type
           rdf:resource="http://purl.org/dc/dcmitype/StillImage" />
        <dc:title></dc:title>
      </cc:Work>
    </rdf:RDF>
  </metadata>
  <g
     inkscape:label="Layer 1"
     inkscape:groupmode="layer"
     id="layer1"
     transform="translate(0,-952.36218)">
    <path
       style="fill:#ffffff;fill-opacity:0.55026454999999996;fill-rule:nonzero;stroke:#000000;stroke-width:1;stroke-linecap:round;stroke-linejoin:round;stroke-miterlimit:4;stroke-opacity:1;stroke-dasharray:none"
       d="m 20.37782,967.7395 50.243982,4.82793 c 0,0 4.16233,11.17559 6.162794,17.26661 1.860839,5.66589 3.760452,16.02136 3.760452,22.09466 0,6.0731 -1.899616,12.0097 -3.760452,17.6756 -2.000464,6.091 -6.162794,12.8477 -6.162794,12.8477 l -50.243982,-4.0099 c 0,0 3.760452,-8.8378 5.466639,-13.2567 2.135424,-5.5306 5.814716,-11.6025 5.814716,-17.6756 0,-6.0733 -1.659175,-10.14762 -5.814716,-17.67578 -2.033195,-3.68333 -5.509425,-21.96045 -5.466639,-22.09452 z"
       id="rect3117"
       inkscape:connector-curvature="0"
       sodipodi:nodetypes="ccsssccsssc" />
    <path
       style="fill:none;stroke:#000000;stroke-width:1;stroke-linecap:butt;stroke-linejoin:round;stroke-opacity:0.28627450999999998;stroke-miterlimit:4;stroke-dasharray:none"
       d="m 31.310601,980.58719 c -0.358138,-0.26302 -0.730748,-0.50063 -1.074415,-0.78909 -0.03643,-0.0306 0.08954,0 0.134302,0 0.04476,0 0.08954,0 0.134302,0 0.04476,0 0.102646,0.0372 0.134302,0 0.03166,-0.0372 -0.03166,-0.12062 0,-0.15782 0.03166,-0.0372 0.09426,0.0235 0.134301,0 0.113254,-0.0665 0.155351,-0.24909 0.268604,-0.31563 0.08008,-0.0471 0.205294,0.0744 0.268604,0 0.03166,-0.0372 -0.04004,-0.1343 0,-0.15782 0.08008,-0.0471 0.183664,0.0333 0.268604,0 0.120123,-0.0471 0.14848,-0.26859 0.268604,-0.31564 0.08494,-0.0333 0.183663,0.0333 0.268603,0 0.120123,-0.0471 0.155351,-0.24909 0.268604,-0.31563 0.04004,-0.0235 0.09426,0.0235 0.134302,0 0.05662,-0.0333 0.07767,-0.12455 0.134301,-0.15782 0.04004,-0.0235 0.09426,0.0235 0.134302,0 0.113254,-0.0665 0.163249,-0.2331 0.268604,-0.31564 0.08329,-0.0652 0.185313,-0.0926 0.268604,-0.15782 0.105355,-0.0825 0.15535,-0.24909 0.268603,-0.31563 0.04004,-0.0235 0.102647,0.0372 0.134302,0 0.03166,-0.0372 -0.03166,-0.12062 0,-0.15782 0.03166,-0.0372 0.09426,0.0235 0.134302,0 0.04382,-0.0258 0.224778,-0.28989 0.268604,-0.31564 0.04004,-0.0235 0.09426,0.0235 0.134302,0 0.05662,-0.0333 0.07767,-0.12454 0.134302,-0.15782 0.08325,-0.0489 0.589082,0.0484 0.671509,0 0.04004,-0.0235 -0.02002,-0.11076 0,-0.15781 0.02832,-0.0665 0.07767,-0.12455 0.134302,-0.15782 0.04857,-0.0285 0.578096,0 0.671509,0 0.04476,0 0.102646,0.0372 0.134302,0 0.03166,-0.0372 -0.03166,-0.12062 0,-0.15782 0.0043,-0.005 0.370333,0 0.402905,0 0.07023,0 0.501894,-0.0208 0.537208,0 0.558932,0.3284 -0.143574,-0.0109 0.134302,0.31564 0.03166,0.0372 0.102646,-0.0372 0.134301,0 0.03166,0.0372 -0.03166,0.12062 0,0.15781 0.03166,0.0372 0.102647,-0.0372 0.134302,0 0.03166,0.0372 -0.03166,0.12062 0,0.15782 0.03166,0.0372 0.09426,-0.0235 0.134302,0 0.05663,0.0333 0.08954,0.10521 0.134302,0.15782 0.04476,0.0526 0.105989,0.0913 0.134302,0.15782 0.02002,0.0471 -0.03166,0.12062 0,0.15782 0.03166,0.0372 0.102647,-0.0372 0.134302,0 0.03166,0.0372 -0.03166,0.12062 0,0.15782 0.03166,0.0372 0.102646,-0.0372 0.134302,0 0.03165,0.0372 -0.03166,0.12062 0,0.15781 0.06331,0.0744 0.205293,-0.0744 0.268603,0 0.03166,0.0372 -0.02002,0.11077 0,0.15782 0.02832,0.0665 0.08953,0.10521 0.134302,0.15782 0.04476,0.0526 0.07767,0.12455 0.134302,0.15782 0.04004,0.0235 0.08953,0 0.134302,0 0.04476,0.0526 0.07768,0.12454 0.134301,0.15782 0.04004,0.0235 0.102647,-0.0372 0.134303,0 0.03166,0.0372 -0.03166,0.12062 0,0.15781 0.03166,0.0372 0.102646,-0.0372 0.134301,0 0.03166,0.0372 -0.03166,0.12062 0,0.15782 0.03166,0.0372 0.08953,0 0.134302,0 0.04476,0 0.08953,0 0.134302,0 0.358138,0 -0.04476,-0.0526 0.134302,0.15782 0.03166,0.0372 0.08953,0 0.134302,0 0.04476,0 0.08953,0 0.134301,0 0.313372,0 0.626743,0 0.940113,0 0.08954,0 0.179069,0 0.268604,0 0.04476,0 0.09426,-0.0235 0.134302,0 0.614647,0.36114 -0.569898,-0.0654 0.402906,0.31564 0.07577,0.0297 0.314654,0 0.402905,0 0.447673,0 0.895346,0 1.343018,0 0.268604,0 0.537208,0 0.805812,0 0.08953,0 0.179069,0 0.268604,0 0.04476,0 0.09426,0.0235 0.134301,0 0.05663,-0.0333 0.07424,-0.1343 0.134302,-0.15782 0.08494,-0.0333 0.179069,0 0.268604,0 0.04476,0 0.09426,0.0235 0.134302,0 0.05663,-0.0333 0.08954,-0.10521 0.134301,-0.15782 0.08953,0 0.183664,0.0333 0.268604,0 0.06006,-0.0235 0.07767,-0.12455 0.134302,-0.15782 0.107442,-0.0631 0.295464,0.0631 0.402906,0 0.04004,-0.0235 0,-0.10521 0,-0.15782 0.04476,-0.0526 0.07424,-0.13429 0.134301,-0.15781 0.761044,0 0.04476,0.10521 0.268604,-0.15782 1.29e-4,-1.5e-4 0.402297,2.4e-4 0.402906,0 0.120123,-0.0471 0.15535,-0.2491 0.268603,-0.31564 0.04004,-0.0235 0.09426,0.0235 0.134302,0 0.113253,-0.0665 0.155351,-0.24909 0.268604,-0.31563 0.07246,-0.0426 0.196141,0.0426 0.268604,0 0.05663,-0.0333 0.07768,-0.12455 0.134302,-0.15782 0.08008,-0.0471 0.205292,0.0744 0.268603,0 0.03166,-0.0372 0,-0.10522 0,-0.15782 0.04476,-0.0526 0.08162,-0.11655 0.134302,-0.15782 0.08329,-0.0652 0.173638,-0.12062 0.268604,-0.15782 0.08494,-0.0333 0.179069,0 0.268603,0 0.223837,0 0.447673,0 0.67151,0 0.09341,0 0.622941,-0.0285 0.671509,0 0.161162,0.0947 0.241743,0.37877 0.402906,0.47346 0.08008,0.0471 0.205293,-0.0744 0.268603,0 0.03166,0.0372 -0.03166,0.12062 0,0.15782 0.03166,0.0372 0.102647,-0.0372 0.134302,0 0.277876,0.32653 -0.42463,-0.0128 0.134302,0.31563 0.04004,0.0235 0.102646,-0.0372 0.134302,0 0.03166,0.0372 -0.03166,0.12062 0,0.15782 0.03166,0.0372 0.09426,-0.0235 0.134301,0 0.05662,0.0333 0.07768,0.12455 0.134303,0.15782 0.04004,0.0235 0.09426,-0.0235 0.134301,0 0.05663,0.0333 0.07767,0.12454 0.134302,0.15782 0.04004,0.0235 0.09426,-0.0235 0.134302,0 0.05662,0.0333 0.07767,0.12454 0.134302,0.15781 0.04004,0.0235 0.09426,-0.0235 0.134302,0 0.05663,0.0333 0.07767,0.12455 0.134301,0.15782 0.04004,0.0235 0.08953,0 0.134303,0 0.04476,0 0.08953,0 0.134301,0 0.223837,0 0.447673,0 0.671509,0 0.716277,0 1.432553,0 2.14883,0 0.07023,0 0.501894,-0.0207 0.537208,0 0.05662,0.0333 0.07767,0.12455 0.134301,0.15782 0.04004,0.0235 0.09426,-0.0235 0.134302,0 0.05662,0.0333 0.07768,0.12455 0.134302,0.15782 0.08008,0.0471 0.205294,-0.0744 0.268604,0 0.03166,0.0372 -0.03166,0.12062 0,0.15782 0.06331,0.0744 0.188521,-0.0471 0.268604,0 0.05662,0.0333 0.07767,0.12454 0.134301,0.15782 0.04004,0.0235 0.09426,-0.0235 0.134302,0 0.05663,0.0333 0.07768,0.12454 0.134302,0.15781 0.08008,0.0471 0.188521,-0.047 0.268604,0 0.558931,0.3284 -0.143574,-0.0109 0.134301,0.31565 0.06331,0.0744 0.205294,-0.0744 0.268604,0 0.03166,0.0372 -0.03166,0.12062 0,0.15782 0.06331,0.0744 0.205294,-0.0744 0.268604,0 0.03166,0.0372 -0.03166,0.12062 0,0.15782 0.06715,0.0789 0.335755,-0.0789 0.402905,0 0.03166,0.0372 -0.03166,0.12062 0,0.15781 0.03166,0.0372 0.102647,-0.0372 0.134302,0 0.03166,0.0372 -0.04004,0.1343 0,0.15782 0.107473,0.0632 0.295459,-0.0631 0.402906,0 0.05663,0.0333 0.07768,0.12455 0.134302,0.15782 0.08008,0.0471 0.183664,-0.0333 0.268603,0 0.972805,0.38105 -0.211741,-0.0455 0.402906,0.31564 0.04004,0.0235 0.102646,-0.0372 0.134302,0 0.03166,0.0372 -0.03166,0.12062 0,0.15781 0.03166,0.0372 0.09183,-0.0166 0.134302,0 0.09497,0.0372 0.173637,0.12062 0.268603,0.15782 0.04247,0.0166 0.08954,0 0.134302,0 0.04476,0.0526 0.07767,0.12455 0.134302,0.15782 0.04004,0.0235 0.102647,-0.0372 0.134302,0 0.03166,0.0372 -0.04004,0.13429 0,0.15782 0.08008,0.0471 0.183664,-0.0333 0.268604,0 0.06006,0.0235 0.07767,0.12455 0.134301,0.15782 0.04004,0.0235 0.102647,-0.0372 0.134302,0 0.03166,0.0372 -0.03166,0.12062 0,0.15781 0.03232,0.038 0.50489,-0.038 0.537208,0 0.03166,0.0372 -0.03166,0.12062 0,0.15782 0.03675,0.0432 0.46435,-0.0428 0.537207,0 0.05662,0.0333 0.07767,0.12455 0.134302,0.15782 0.04004,0.0235 0.16265,0.0407 0.134302,0 -0.421429,-0.60527 -0.895346,-1.15733 -1.343019,-1.736"
       id="path3122"
       inkscape:connector-curvature="0" />
    <path
       style="fill:none;stroke:#000000;stroke-width:1;stroke-linecap:butt;stroke-linejoin:round;stroke-opacity:0.28627450999999998;stroke-miterlimit:4;stroke-dasharray:none"
       d="m 35.071053,989.42502 c -0.223837,0.31563 -0.453089,0.62607 -0.671509,0.94691 -0.03955,0.0581 0.09377,-0.10067 0.134301,-0.15782 0.183509,-0.25877 0.307887,-0.58699 0.537208,-0.78909 0.147664,-0.13014 0.356211,-0.11528 0.537207,-0.15782 0.0439,-0.0103 0.102647,0.0372 0.134302,0 0.03166,-0.0372 -0.03166,-0.12062 0,-0.15782 7.14e-4,-8.5e-4 0.398416,10e-4 0.402906,0 0.617289,-0.18134 0.03047,-0.15782 0.402905,-0.15782 0.402906,0 0.805811,0 1.208717,0 0.04476,0 0.08953,0 0.134302,0 0.04476,0 0.102646,-0.0372 0.134302,0 0.03165,0.0372 -0.03166,0.12062 0,0.15782 0.03165,0.0372 0.102646,-0.0372 0.134301,0 0.277876,0.32653 -0.42463,-0.0128 0.134302,0.31564 0.18525,0.10884 0.12013,-0.19113 0.268604,0.15782 0.02002,0.0471 -0.02002,0.11076 0,0.15781 0.02832,0.0665 0.105989,0.0913 0.134302,0.15782 0.02002,0.0471 -0.03166,0.12062 0,0.15782 0.03166,0.0372 0.09426,-0.0235 0.134301,0 0.05663,0.0333 0.08954,0.10521 0.134303,0.15782 0.04476,0.0526 0.105988,0.0913 0.134301,0.15782 0.02002,0.0471 -0.03166,0.12062 0,0.15782 0.03166,0.0372 0.102647,-0.0372 0.134302,0 0.03166,0.0372 -0.03166,0.12061 0,0.15781 0.0043,0.005 0.370334,0 0.402906,0 0.31337,0 0.626742,0 0.940113,0 0.04476,0 0.102647,0.0372 0.134301,0 0.03166,-0.0372 -0.03166,-0.12062 0,-0.15781 0.07079,-0.0832 0.179069,-0.10522 0.268604,-0.15782 0.08953,-0.0526 0.173638,-0.12062 0.268604,-0.15782 0.04247,-0.0166 0.09426,0.0235 0.134301,0 0.05663,-0.0333 0.10599,-0.0913 0.134303,-0.15782 0.02002,-0.0471 -0.04004,-0.13429 0,-0.15782 0.08008,-0.0471 0.188521,0.0471 0.268604,0 0.04004,-0.0235 -0.03166,-0.12062 0,-0.15782 0.03166,-0.0372 0.102646,0.0372 0.134301,0 0.03166,-0.0372 -0.03166,-0.12062 0,-0.15781 0.06331,-0.0744 0.205294,0.0744 0.268604,0 0.179069,-0.21043 -0.284897,-0.15144 0.134301,-0.31564 0.06143,-0.0241 0.477447,0.0351 0.537208,0 0.614647,-0.36114 -0.569899,0.0654 0.402905,-0.31564 0.104199,-0.0408 0.595606,0.0223 0.67151,0 0.06142,-0.018 0.07424,-0.13429 0.134302,-0.15782 0.08494,-0.0333 0.179069,0 0.268604,0 0.268603,0 0.537207,0 0.80581,0 0.08953,0 0.181743,0.0255 0.268604,0 0.09711,-0.0285 0.17149,-0.12928 0.268604,-0.15782 0.08686,-0.0255 0.179069,0 0.268604,0 0.08953,0 0.179069,0 0.268603,0 0.492441,0 0.984881,0 1.477321,0 0.940113,0 1.880226,0 2.820339,0 0.04476,0 0.08953,0 0.134301,0 0.04476,0 0.09426,-0.0235 0.134302,0 0.05662,0.0333 0.07424,0.13429 0.134302,0.15782 0.08494,0.0333 0.181743,-0.0255 0.268604,0 0.09711,0.0285 0.173638,0.12063 0.268604,0.15782 0.04247,0.0166 0.102646,-0.0372 0.134301,0 0.03166,0.0372 -0.03166,0.12062 0,0.15782 0.03675,0.0432 0.464351,-0.0428 0.537208,0 0.05663,0.0333 0.07424,0.13428 0.134301,0.15782 0.0722,0.0283 0.423501,0 0.537208,0 0.402905,0 0.805811,0 1.208717,0 0.358138,0 0.716276,0 1.074414,0 0.108118,0 0.452913,-0.033 0.537208,0 0.09497,0.0372 0.173638,0.12062 0.268604,0.15782 0.07577,0.0297 0.314654,0 0.402905,0 0.402905,0 0.805811,0 1.208717,0 0.04476,0 0.08953,0 0.134301,0 0.04476,0 0.102647,-0.0372 0.134303,0 0.03165,0.0372 -0.03166,0.12062 0,0.15782 0.03165,0.0372 0.08953,0 0.134301,0 0.268604,0 0.537208,0 0.805811,0 0.04476,0 0.08953,0 0.134302,0 0.04476,0 0.102647,-0.0372 0.134302,0 0.03166,0.0372 -0.03166,0.12062 0,0.15781 0.03166,0.0372 0.102646,-0.0372 0.134302,0 0.03166,0.0372 -0.03166,0.12062 0,0.15782 0.03166,0.0372 0.09426,-0.0235 0.134302,0 0.05662,0.0333 0.07767,0.12455 0.134302,0.15782 0.107441,0.0631 0.295464,-0.0631 0.402905,0 0.05663,0.0333 0.07768,0.12455 0.134302,0.15782 0.04004,0.0235 0.102646,-0.0372 0.134302,0 0.03166,0.0372 -0.03166,0.12062 0,0.15782 0.03166,0.0372 0.08953,0 0.134302,0 0.04476,0 0.08953,0 0.134302,0 0.358137,0 0.716276,0 1.074414,0 0.268604,0 0.537208,0 0.805811,0 0.06048,0 0.362033,-0.024 0.402906,0 0.05662,0.0333 0.07767,0.12454 0.134302,0.15782 0.08441,0.0496 0.452795,-0.0496 0.537207,0 0.05662,0.0333 0.07768,0.12454 0.134302,0.15781 0.04087,0.024 0.342422,0 0.402906,0 0.04476,0 0.09934,0.0329 0.134302,0 0.420942,-0.39572 0.80581,-0.84169 1.208716,-1.26254"
       id="path3124"
       inkscape:connector-curvature="0" />
    <path
       style="fill:none;stroke:#000000;stroke-width:1;stroke-linecap:butt;stroke-linejoin:round;stroke-opacity:0.28627450999999998;stroke-miterlimit:4;stroke-dasharray:none"
       d="m 38.359911,999.97845 c 1.584733,1.02385 1.45423,1.10485 2.417434,1.10485 0.04476,0 0.102647,0.037 0.134301,0 0.03166,-0.037 -0.03166,-0.1207 0,-0.1579 0.06715,-0.079 0.335755,0.079 0.402907,0 0.179069,-0.2104 -0.284898,-0.1514 0.134301,-0.3156 0.761044,0 0.04476,0.1052 0.268604,-0.1578 0.06331,-0.074 0.188521,0.047 0.268604,0 0.558931,-0.3284 -0.143574,0.011 0.134301,-0.3157 1.29e-4,-10e-5 0.402297,3e-4 0.402906,0 0.120123,-0.047 0.155351,-0.24915 0.268603,-0.31565 0.04004,-0.024 0.09426,0.024 0.134303,0 0.05662,-0.033 0.07424,-0.1343 0.134301,-0.1579 0.497872,-0.195 0.08794,0.2123 0.402906,-0.1578 0.04477,-0.053 0.07424,-0.1343 0.134302,-0.1578 0.08494,-0.033 0.179069,0 0.268604,0 0.04476,0 0.09426,0.024 0.134301,0 0.05662,-0.033 0.08162,-0.1165 0.134302,-0.1578 0.678467,-0.53152 0.0031,-9e-4 0.402906,-0.1578 0.972804,-0.38107 -0.211742,0.046 0.402905,-0.3157 0.0428,-0.0252 0.551481,0 0.671509,0 0.223837,0 0.447673,0 0.67151,0 0.04476,0 0.08953,0 0.134302,0 0.04476,0 0.09426,-0.0235 0.134301,0 0.05662,0.033 0.08162,0.1166 0.134302,0.1579 0.08953,0.053 0.179069,0.1052 0.268604,0.1578 0.04476,0 0.09426,-0.024 0.134302,0 0.113253,0.067 0.15535,0.2491 0.268604,0.3156 0.04004,0.024 0.102646,-0.037 0.134301,0 0.03166,0.037 -0.03166,0.1206 0,0.1578 0.03166,0.037 0.102647,-0.037 0.134302,0 0.277875,0.3266 -0.42463,-0.013 0.134302,0.3157 0.18525,0.1088 0.120129,-0.1912 0.268604,0.1578 0.02002,0.0471 -0.02002,0.11085 0,0.15785 0.02832,0.067 0.08954,0.1053 0.134302,0.1579 0.04476,0.053 0.07767,0.1245 0.134301,0.1578 0.04004,0.024 0.102647,-0.037 0.134302,0 0.06331,0.074 -0.06331,0.2412 0,0.3156 0.06331,0.074 0.205294,-0.074 0.268604,0 0.03166,0.037 -0.03166,0.1206 0,0.1578 0.03166,0.037 0.08954,0 0.134302,0 0.04476,0 0.08953,0 0.134302,0 0.537207,0 1.074415,0 1.611622,0 1.96976,0 3.939521,0 5.909281,0 0.626743,0 1.253484,0 1.880226,0 0.06075,0 0.77002,-0.021 0.805811,0 0.05662,0.033 0.07768,0.1246 0.134302,0.1579 0.04088,0.024 0.342421,0 0.402905,0 0.358139,0 0.716277,0 1.074416,0 0.09341,0 0.622941,-0.029 0.671509,0 0.05662,0.033 0.07767,0.1245 0.134302,0.1578 0.03531,0.021 0.466978,0 0.537207,0 0.358138,0 0.716276,0 1.074415,0 1.208717,0 2.417433,0 3.626149,0 0.17907,0 0.358139,0 0.537208,0 0.04476,0 0.102647,-0.037 0.134302,0 0.03166,0.037 -0.03166,0.1206 0,0.1578 0.04354,0.051 0.586268,-0.05 0.67151,0 0.05662,0.033 0.07767,0.1245 0.134301,0.1578 0.04004,0.024 0.08953,0 0.134302,0 0.04476,0 0.08953,0 0.134302,0 0.223836,0 0.447673,0 0.671509,0 0.04476,0 0.157334,0.045 0.134301,0 -0.281147,-0.5506 -0.626741,-1.0521 -0.940112,-1.57825"
       id="path3126"
       inkscape:connector-curvature="0" />
    <path
       style="fill:none;stroke:#000000;stroke-width:1;stroke-linecap:butt;stroke-linejoin:round;stroke-opacity:0.28571429999999998;stroke-miterlimit:4;stroke-dasharray:none"
       d="m 37.557381,1010.424 c -0.402905,0.6313 -0.83623,1.2373 -1.208716,1.8939 -0.02483,0.043 0.08953,0 0.134302,0 0.179069,0 0.358138,0 0.537207,0 0.49244,0 0.98488,0 1.47732,0 0.113707,0 0.465007,0.028 0.537208,0 0.06006,-0.024 0.07767,-0.1246 0.134301,-0.1579 0.08726,-0.051 0.718556,0.051 0.805812,0 0.05662,-0.034 0.07424,-0.1343 0.134301,-0.1578 0.127411,-0.05 0.268604,0 0.402907,0 0.402905,0 0.80581,0 1.208716,0 0.402906,0 0.805811,0 1.208716,0 0.17907,0 0.361617,-0.042 0.537208,0 0.385465,0.091 0.686628,0.3975 1.074415,0.4734 0.132474,0.026 0.271211,-0.031 0.402905,0 0.235144,0.056 0.570668,0.4182 0.805811,0.4735 0.131694,0.031 0.271212,-0.031 0.402906,0 0.196318,0.046 0.347276,0.2413 0.537207,0.3157 0.04247,0.017 0.09183,-0.017 0.134302,0 0.09497,0.037 0.185313,0.092 0.268604,0.1578 0.05268,0.042 0.07424,0.1343 0.134302,0.1578 0.08494,0.034 0.183664,-0.034 0.268603,0 0.120124,0.047 0.155351,0.2491 0.268604,0.3157 0.05325,0.031 0.37545,-0.032 0.402906,0 0.03165,0.037 -0.03166,0.1206 0,0.1577 0.03165,0.037 0.09426,-0.024 0.134302,0 0.05662,0.034 0.07767,0.1246 0.134301,0.1579 0.04004,0.024 0.102647,-0.037 0.134302,0 0.06331,0.074 -0.06331,0.2412 0,0.3156 0.06331,0.074 0.205293,-0.074 0.268604,0 0.03166,0.037 -0.03166,0.1206 0,0.1578 0.03166,0.037 0.09183,-0.017 0.134302,0 0.09497,0.037 0.173638,0.1206 0.268604,0.1578 0.08494,0.034 0.188521,-0.047 0.268603,0 0.113253,0.066 0.155351,0.2491 0.268604,0.3156 0.05325,0.031 0.375449,-0.033 0.402906,0 0.03166,0.037 -0.03166,0.1207 0,0.1579 0.04525,0.053 0.223357,-0.053 0.268603,0 0.03166,0.037 -0.03166,0.1206 0,0.1578 0.0061,0.01 0.608187,0 0.67151,0 0.31337,0 0.626741,0 0.940113,0 0.134301,0 0.275495,0.05 0.402905,0 0.120123,-0.047 0.148481,-0.2686 0.268604,-0.3157 0.08494,-0.034 0.179069,0 0.268604,0 0.04476,0 0.09426,0.024 0.134301,0 0.05662,-0.034 0.08162,-0.1164 0.134302,-0.1577 0.678467,-0.5315 0.0031,0 0.402906,-0.1579 0.972804,-0.381 -0.211742,0.046 0.402905,-0.3156 0.07101,-0.041 0.471777,0.019 0.537208,0 0.243077,0.095 0.249777,-0.2556 0.402905,-0.3156 0.166796,-0.065 0.494927,0.052 0.671509,0 0.09711,-0.028 0.179069,-0.1052 0.268604,-0.1579 0.08953,-0.053 0.185313,-0.092 0.268604,-0.1577 0.05268,-0.042 0.07768,-0.1247 0.134301,-0.1579 0.04004,-0.024 0.08953,0 0.134303,0 0.04476,0 0.08953,0 0.134301,0 0.268604,0 0.537208,0 0.805811,0 0.895346,0 1.790691,0 2.686037,0 0.06333,0 0.665422,-0.01 0.67151,0 0.277875,0.3266 -0.424631,-0.012 0.134301,0.3156 0.04004,0.024 0.08954,0 0.134302,0 0.04476,0 0.08953,0 0.134302,0 0.223837,0 0.447673,0 0.671509,0 0.716277,0 1.432553,0 2.14883,0 0.402905,0 0.805811,0 1.208717,0 0.07023,0 0.501894,0.021 0.537207,0 0.05663,-0.034 0.07768,-0.1245 0.134302,-0.1577 0.04004,-0.024 0.09426,0.024 0.134301,0 0.05663,-0.034 0.07768,-0.1247 0.134303,-0.1579 0.04004,-0.024 0.08953,0 0.134301,0 0.08953,0 0.183664,0.034 0.268604,0 0.06006,-0.024 0.07767,-0.1245 0.134302,-0.1578 0.04004,-0.024 0.09183,0.017 0.134302,0 0.537207,-0.2105 -0.02716,-0.1514 0.671509,-0.3156 0.0878,-0.02 0.181743,0.026 0.268604,0 0.648536,-0.1906 -0.0067,-0.075 0.402905,-0.3157 0.126621,-0.074 0.265566,-0.1175 0.402905,-0.1578 0.04343,-0.012 0.09426,0.024 0.134303,0 0.05662,-0.034 0.08162,-0.1165 0.134301,-0.1578 0.06764,-0.3477 0.276285,-0.083 0.402906,-0.1579 0.05662,-0.034 0.07424,-0.1342 0.134302,-0.1577 0.08494,-0.034 0.188521,0.047 0.268604,0 0.04004,-0.024 -0.03166,-0.1206 0,-0.1579 0.0054,-0.01 0.487887,0 0.537207,0 0.04476,0 0.102646,-0.037 0.134302,0 0.04158,0.049 -0.04158,0.7402 0,0.7891 0.03166,0.037 0.102647,-0.037 0.134301,0 0.03166,0.037 -0.03166,0.1206 0,0.1578 0.03166,0.037 0.102647,-0.037 0.134303,0 0.03166,0.037 -0.02002,0.1108 0,0.1579 0.02832,0.066 0.105988,0.091 0.134301,0.1578 0.02002,0.047 -0.03166,0.1206 0,0.1578 0.03166,0.037 0.102647,-0.037 0.134302,0 0.03166,0.037 -0.03166,0.1206 0,0.1578 0.03166,0.037 0.08953,0 0.134302,0 0.134301,0.3683 0.268604,0.7365 0.402905,1.1047"
       id="path3128"
       inkscape:connector-curvature="0" />
    <path
       style="fill:none;stroke:#000000;stroke-width:1;stroke-linecap:butt;stroke-linejoin:round;stroke-opacity:0.28627450999999998;stroke-miterlimit:4;stroke-dasharray:none"
       d="m 33.190827,1025.5378 c 1.069851,-0.3194 2.041144,-0.3156 3.088942,-0.3156 0.03257,0 0.398587,-0.01 0.402906,0 0.03166,0.037 -0.03166,0.1206 0,0.1578 0.06331,0.074 0.183664,-0.034 0.268604,0 0.09497,0.037 0.173638,0.1206 0.268603,0.1578 0.04247,0.017 0.09426,-0.024 0.134303,0 0.05662,0.034 0.08162,0.1166 0.134301,0.1579 0.08954,0.052 0.179069,0.1052 0.268604,0.1577 0.04476,0 0.09426,-0.024 0.134302,0 0.05662,0.034 0.07424,0.1344 0.134302,0.1579 0.08494,0.034 0.183663,-0.034 0.268604,0 0.120123,0.047 0.14848,0.2686 0.268603,0.3156 0.142711,0.056 0.394497,-0.056 0.537207,0 0.972804,0.3811 -0.211741,-0.045 0.402906,0.3157 0.04004,0.024 0.08953,0 0.134302,0 0.08953,0 0.179069,0 0.268604,0 0.358138,0 0.716276,0 1.074414,0 0.113707,0 0.465006,-0.028 0.537208,0 0.09094,0.035 0.300313,0.4131 0.402905,0.4734 0.04857,0.028 0.578097,0 0.671509,0 0.537208,0 1.074415,0 1.611622,0 0.313372,0 0.626743,0 0.940113,0 0.08825,0 0.327133,-0.03 0.402906,0 0.09497,0.037 0.173638,0.1207 0.268604,0.1579 0.08194,0.032 0.702085,0 0.805811,0 0.537207,0 1.074415,0 1.611622,0 0.447673,0 0.895346,0 1.343019,0 0.04476,0 0.08953,0 0.134301,0 0.04477,0 0.102647,-0.037 0.134302,0 0.277876,0.3264 -0.42463,-0.012 0.134302,0.3156 0.04004,0.024 0.09426,-0.024 0.134302,0 0.05662,0.034 0.08953,0.1052 0.134302,0.1578 0.04476,0.053 0.105988,0.091 0.134302,0.1578 0.02002,0.047 -0.03166,0.1206 0,0.1578 0.03165,0.037 0.09426,-0.024 0.134302,0 0.113253,0.066 0.15535,0.2491 0.268603,0.3157 0.04004,0.024 0.09183,-0.017 0.134302,0 0.09497,0.037 0.173638,0.1205 0.268604,0.1577 0.04247,0.017 0.102647,-0.037 0.134301,0 0.03166,0.037 -0.03166,0.1207 0,0.1579 0.0043,0.01 0.370334,0 0.402906,0 0.402906,0 0.805811,0 1.208717,0 0.07023,0 0.501894,-0.021 0.537207,0 0.05663,0.034 0.07767,0.1245 0.134302,0.1578 0.107442,0.063 0.295464,-0.063 0.402906,0 0.05662,0.034 0.07767,0.1246 0.134301,0.1579 0.08008,0.047 0.188522,-0.047 0.268604,0 0.05663,0.034 0.07767,0.1245 0.134302,0.1577 0.04088,0.024 0.342422,0 0.402906,0 0.358138,0 0.716276,0 1.074414,0 0.402906,0 0.805812,0 1.208717,0 0.04575,0 0.464523,0.028 0.537208,0 0.09496,-0.037 0.173638,-0.1206 0.268603,-0.1577 0.08462,-0.033 0.703284,0 0.805811,0 0.49244,0 0.98488,0 1.477321,0 0.04932,0 0.531803,-0.01 0.537207,0 0.03166,0.037 -0.03166,0.1205 0,0.1577 0.02746,0.032 0.349656,-0.031 0.402905,0 0.05662,0.034 0.07768,0.1246 0.134302,0.1579 0.07285,0.042 0.50046,-0.043 0.537208,0 0.03166,0.037 -0.03166,0.1206 0,0.1578 0.03166,0.037 0.08953,0 0.134302,0 0.04476,0 0.08953,0 0.134301,0 0.358138,0 0.716277,0 1.074415,0 0.04476,0 0.08953,0 0.134302,0 0.04476,0 0.102647,-0.037 0.134302,0 0.03166,0.037 -0.03166,0.1206 0,0.1578 0.06331,0.074 0.205293,-0.074 0.268604,0 0.03166,0.037 -0.03166,0.1206 0,0.1578 0.0054,0.01 0.487887,0 0.537207,0 0.358138,0 0.716277,0 1.074415,0 0.04476,0 0.102646,0.037 0.134302,0 0.277875,-0.3265 -0.42463,0.012 0.134301,-0.3156 0.08008,-0.047 0.188522,0.047 0.268604,0 0.05662,-0.034 0.07767,-0.1246 0.134302,-0.1578 0.05325,-0.031 0.375449,0.033 0.402906,0 0.03166,-0.037 -0.03166,-0.1951 0,-0.1579 0.202692,0.2382 0.358138,0.5261 0.537207,0.7892"
       id="path3130"
       inkscape:connector-curvature="0" />
    <path
       sodipodi:type="spiral"
       style="fill:none;stroke:#a9429c;stroke-width:1px;stroke-linecap:butt;stroke-linejoin:miter;stroke-opacity:1"
       id="path4426"
       sodipodi:cx="50"
       sodipodi:cy="70"
       sodipodi:expansion="1"
       sodipodi:revolution="3"
       sodipodi:radius="5"
       sodipodi:argument="-17.278759"
       sodipodi:t0="0"
       d="m 50,70 c 0,0.250692 -0.337928,0.123682 -0.416667,0 -0.213377,-0.335173 0.09384,-0.730576 0.416667,-0.833333 0.577456,-0.18381 1.133153,0.282706 1.25,0.833334 0.171477,0.808068 -0.472414,1.542909 -1.250001,1.666666 -1.036402,0.164947 -1.95544,-0.662196 -2.083332,-1.666668 -0.16094,-1.264026 0.851958,-2.369347 2.083334,-2.499999 1.491363,-0.158238 2.78404,1.041699 2.916666,2.500002 0.156294,1.718559 -1.231424,3.199225 -2.916669,3.333331 -1.945682,0.154832 -3.614739,-1.421139 -3.749998,-3.333335 -0.15369,-2.172759 1.610847,-4.030483 3.750002,-4.166665 2.399809,-0.152775 4.446395,1.800552 4.583331,4.16667 C 54.735359,72.626842 52.593081,74.862434 49.999997,75"
       transform="translate(16.58419,964.03724)" />
  </g>
</svg>
