<?xml version="1.0" encoding="UTF-8" standalone="no"?>
<!-- Created with Inkscape (http://www.inkscape.org/) -->

<svg
   xmlns:dc="http://purl.org/dc/elements/1.1/"
   xmlns:cc="http://creativecommons.org/ns#"
   xmlns:rdf="http://www.w3.org/1999/02/22-rdf-syntax-ns#"
   xmlns:svg="http://www.w3.org/2000/svg"
   xmlns="http://www.w3.org/2000/svg"
   xmlns:xlink="http://www.w3.org/1999/xlink"
   xmlns:sodipodi="http://sodipodi.sourceforge.net/DTD/sodipodi-0.dtd"
   xmlns:inkscape="http://www.inkscape.org/namespaces/inkscape"
   width="142"
   height="142"
   id="svg5313"
   version="1.1"
   inkscape:version="0.48.4 r9939"
   sodipodi:docname="avatar_creature_4.svg"
   inkscape:export-filename="D:\Archive\Projects\Github\hmmmmmmmmmmmmmmm\Assets\Textures\Sprites\avatar_creature_4.png"
   inkscape:export-xdpi="90"
   inkscape:export-ydpi="90">
  <defs
     id="defs5315">
    <linearGradient
       id="linearGradient6066">
      <stop
         style="stop-color:#ffff00;stop-opacity:0.33035713;"
         offset="0"
         id="stop6068" />
      <stop
         style="stop-color:#ffff00;stop-opacity:0;"
         offset="1"
         id="stop6070" />
    </linearGradient>
    <radialGradient
       inkscape:collect="always"
       xlink:href="#linearGradient6066"
       id="radialGradient6072"
       cx="19.285715"
       cy="27.892857"
       fx="19.285715"
       fy="27.892857"
       r="13.75"
       gradientTransform="matrix(1,0,0,0.93506491,0,1.8112253)"
       gradientUnits="userSpaceOnUse" />
    <radialGradient
       inkscape:collect="always"
       xlink:href="#linearGradient6066"
       id="radialGradient6076"
       gradientUnits="userSpaceOnUse"
       gradientTransform="matrix(1,0,0,0.93506491,0,1.8112253)"
       cx="19.285715"
       cy="27.892857"
       fx="19.285715"
       fy="27.892857"
       r="13.75" />
  </defs>
  <sodipodi:namedview
     id="base"
     pagecolor="#ffffff"
     bordercolor="#666666"
     borderopacity="1.0"
     inkscape:pageopacity="0.0"
     inkscape:pageshadow="2"
     inkscape:zoom="5.6"
     inkscape:cx="75.956102"
     inkscape:cy="84.295469"
     inkscape:document-units="px"
     inkscape:current-layer="layer1"
     showgrid="false"
     inkscape:window-width="1920"
     inkscape:window-height="1027"
     inkscape:window-x="-8"
     inkscape:window-y="-8"
     inkscape:window-maximized="1" />
  <metadata
     id="metadata5318">
    <rdf:RDF>
      <cc:Work
         rdf:about="">
        <dc:format>image/svg+xml</dc:format>
        <dc:type
           rdf:resource="http://purl.org/dc/dcmitype/StillImage" />
        <dc:title></dc:title>
      </cc:Work>
    </rdf:RDF>
  </metadata>
  <g
     inkscape:groupmode="layer"
     id="layer6"
     inkscape:label="Layer4" />
  <g
     inkscape:groupmode="layer"
     id="layer5"
     inkscape:label="Layer3" />
  <g
     inkscape:groupmode="layer"
     id="layer4"
     inkscape:label="Layer2" />
  <g
     inkscape:label="Layer 1"
     inkscape:groupmode="layer"
     id="layer1"
     transform="translate(0,-910.36218)">
    <rect
       style="fill:#1e0000;fill-opacity:1;stroke:none;stroke-opacity:1"
       id="rect6025"
       width="151.07143"
       height="148.21428"
       x="-3.75"
       y="-3.5357146"
       transform="translate(0,910.36218)" />
    <path
       style="fill:#000000;stroke:#000000;stroke-width:1px;stroke-linecap:butt;stroke-linejoin:miter;stroke-opacity:1"
       d="m 40.892857,124.5 0.714286,-93.75 c 0,0 -0.714286,-10.535715 29.107143,-10.357143 C 100.53571,20.571428 102.5,27.178571 102.5,27.178571 l 0,97.142859 z"
       id="path6027"
       inkscape:connector-curvature="0"
       transform="translate(0,910.36218)" />
    <path
       style="fill:#2b0000;stroke:#000000;stroke-width:1px;stroke-linecap:butt;stroke-linejoin:miter;stroke-opacity:1"
       d="M 41.607143,29.678571 -3.75,1.1071426 -3.3928572,144.32143 l 44.4642862,-20 z"
       id="path6029"
       inkscape:connector-curvature="0"
       transform="translate(0,910.36218)" />
    <path
       inkscape:connector-curvature="0"
       id="path6031"
       d="m 102.32142,940.04075 45.35715,-28.57143 -0.35715,143.21428 -44.46428,-20 z"
       style="fill:#2b0000;stroke:#000000;stroke-width:1px;stroke-linecap:butt;stroke-linejoin:miter;stroke-opacity:1" />
    <rect
       style="fill:#552200;fill-opacity:1;stroke:#000000;stroke-opacity:1"
       id="rect6049"
       width="4.6719556"
       height="17.046324"
       x="-265.7312"
       y="918.1618"
       transform="matrix(0.91774073,-0.39718001,0.39718001,0.91774073,0,0)" />
    <path
       transform="translate(0.63134534,908.91009)"
       style="fill:#ff6600;fill-opacity:1;stroke:none"
       d="m 128.54191,33.913677 c 0,4.009848 -3.20823,7.260472 -7.16577,7.260472 -3.95755,0 -7.16577,-3.250624 -7.16577,-7.260472 0,-4.009847 6.91323,-13.321386 6.91323,-13.321386 0,0 7.41831,9.311539 7.41831,13.321386 z"
       id="path6051"
       inkscape:connector-curvature="0"
       sodipodi:nodetypes="ssscs" />
    <path
       sodipodi:nodetypes="ssscs"
       inkscape:connector-curvature="0"
       id="path6054"
       d="m 127.08982,945.7585 c 0,2.38904 -2.09172,4.32575 -4.67196,4.32575 -2.58025,0 -4.67196,-1.93671 -4.67196,-4.32575 0,-2.38905 4.5073,-7.93682 4.5073,-7.93682 0,0 4.83662,5.54777 4.83662,7.93682 z"
       style="fill:#ffcc00;fill-opacity:1;stroke:none" />
    <rect
       transform="matrix(-0.91774073,-0.39718001,-0.39718001,0.91774073,0,0)"
       y="860.53931"
       x="-394.38025"
       height="17.046324"
       width="4.6719556"
       id="rect6056"
       style="fill:#552200;fill-opacity:1;stroke:#000000;stroke-width:1;stroke-opacity:1" />
    <path
       sodipodi:nodetypes="ssscs"
       inkscape:connector-curvature="0"
       id="path6058"
       d="m 11.77973,941.03806 c 0,4.00985 3.20823,7.26047 7.16577,7.26047 3.95755,0 7.16577,-3.25062 7.16577,-7.26047 0,-4.00985 -6.91323,-13.32139 -6.91323,-13.32139 0,0 -7.41831,9.31154 -7.41831,13.32139 z"
       style="fill:#ff6600;fill-opacity:1;stroke:none" />
    <path
       style="fill:#ffcc00;fill-opacity:1;stroke:none"
       d="m 13.86317,943.97279 c 0,2.38904 2.09172,4.32575 4.67196,4.32575 2.58025,0 4.67196,-1.93671 4.67196,-4.32575 0,-2.38905 -4.5073,-7.93682 -4.5073,-7.93682 0,0 -4.83662,5.54777 -4.83662,7.93682 z"
       id="path6060"
       inkscape:connector-curvature="0"
       sodipodi:nodetypes="ssscs" />
    <path
       transform="matrix(1.8831169,0,0,2.0833334,85.825602,887.46635)"
       d="m 33.035715,27.892857 a 13.75,12.857142 0 1 1 -27.4999999,0 13.75,12.857142 0 1 1 27.4999999,0 z"
       sodipodi:ry="12.857142"
       sodipodi:rx="13.75"
       sodipodi:cy="27.892857"
       sodipodi:cx="19.285715"
       id="path6064"
       style="fill:url(#radialGradient6072);fill-opacity:1;stroke:none"
       sodipodi:type="arc" />
    <path
       sodipodi:type="arc"
       style="fill:url(#radialGradient6076);fill-opacity:1;stroke:none"
       id="path6074"
       sodipodi:cx="19.285715"
       sodipodi:cy="27.892857"
       sodipodi:rx="13.75"
       sodipodi:ry="12.857142"
       d="m 33.035715,27.892857 a 13.75,12.857142 0 1 1 -27.4999999,0 13.75,12.857142 0 1 1 27.4999999,0 z"
       transform="matrix(1.8831169,0,0,2.0833334,-16.138684,886.75206)" />
  </g>
</svg>
